<?xml version="1.0" encoding="iso-8859-1"?>
<!-- Generator: Adobe Illustrator 19.0.0, SVG Export Plug-In . SVG Version: 6.00 Build 0)  -->
<svg version="1.1" id="Layer_1" xmlns="http://www.w3.org/2000/svg" xmlns:xlink="http://www.w3.org/1999/xlink" x="0px" y="0px"
	 viewBox="0 0 512 512" style="enable-background:new 0 0 512 512;" xml:space="preserve">
<circle style="fill:#FF7F4F;" cx="256" cy="256" r="256"/>
<path style="fill:#E03A00;" d="M188.399,381.476l124.228,124.228c100.735-22.747,178.941-104.881,195.922-207.679L334.603,124.08
	L188.399,381.476z"/>
<rect x="213.333" y="292.219" style="fill:#FCD088;" width="85.333" height="85.333"/>
<rect x="254.569" y="292.219" style="fill:#DDAB62;" width="44.103" height="85.333"/>
<path style="fill:#3A3A3A;" d="M199.456,351.454l-45.22,9.044c-23.023,4.606-39.596,24.821-39.596,48.3v59.809
	c40.432,27.067,89.05,42.861,141.36,42.861s100.928-15.794,141.36-42.861v-59.809c0-23.48-16.572-43.696-39.596-48.3l-45.22-9.044
	l-7.992-11.666c-1.496-2.184-4.327-3.007-6.759-1.965l-9.209,3.967c-20.794,8.959-44.365,8.937-65.141-0.059l-8.985-3.891
	c-2.415-1.053-5.239-0.262-6.754,1.893L199.456,351.454z"/>
<path style="fill:#161616;" d="M357.764,360.5l-45.22-9.044l-7.992-11.666c-1.496-2.184-4.327-3.007-6.759-1.965l-9.209,3.968
	c-10.849,4.673-22.45,6.878-34.02,6.665v162.983c0.481,0.003,0.955,0.028,1.436,0.028c52.31,0,100.928-15.794,141.36-42.861v-59.809
	C397.36,385.319,380.787,365.104,357.764,360.5z"/>
<path style="fill:#FFEDB5;" d="M344.629,226.568c0.445-4.11,0.676-8.161,0.676-12.112c0-52.264-39.984-94.632-89.305-94.632
	s-89.305,42.368-89.305,94.632c0,3.951,0.233,8.002,0.676,12.112c-8.663,2.251-12.784,15.577-9.204,29.839
	c3.591,14.307,13.569,24.131,22.288,21.942c0.795-0.2,1.536-0.521,2.251-0.898c16.137,32.392,42.946,58.673,73.294,58.673
	c30.348,0,57.156-26.279,73.294-58.673c0.715,0.378,1.458,0.698,2.251,0.898c8.718,2.188,18.697-7.635,22.288-21.942
	C357.414,242.145,353.292,228.817,344.629,226.568z"/>
<path style="fill:#E8CF89;" d="M344.629,226.568c0.445-4.11,0.676-8.161,0.676-12.112c0-52.264-39.984-94.632-89.305-94.632
	c-0.481,0-0.957,0.031-1.436,0.038v216.223c0.479,0.014,0.955,0.038,1.436,0.038c30.348,0,57.156-26.279,73.294-58.673
	c0.715,0.378,1.458,0.698,2.251,0.898c8.718,2.188,18.697-7.635,22.288-21.944C357.414,242.145,353.292,228.817,344.629,226.568z"/>
<path style="fill:#777777;" d="M371.415,360.108l-42.777-5.47L256,491.456l-72.816-136.763l-42.599,5.415
	c-26.112,4.632-44.908,24.971-44.908,48.593v46.864C139.555,490.863,195.305,512,256,512s116.445-21.137,160.323-56.432v-46.864
	C416.323,385.081,397.527,364.742,371.415,360.108z"/>
<path style="fill:#515151;" d="M371.415,360.11l-42.777-5.47L256,491.456l-1.436-2.696v23.224c0.479,0.002,0.957,0.016,1.436,0.016
	c60.695,0,116.445-21.137,160.323-56.432v-46.864C416.323,385.081,397.527,364.742,371.415,360.11z"/>
<path style="fill:#3A3A3A;" d="M167.403,226.568c13.333,6.544,14.21,32.266,14.21,32.266s15.441-53,9.599-72.195
	c-5.842-19.197,9.737-20.513,9.737-20.513c19.553,6.435,38.228,8.589,54.477,8.613v-61.955
	C163.74,113.231,154.098,220.036,167.403,226.568z"/>
<path style="fill:#333333;" d="M256,112.773c-0.195,0-0.381,0.01-0.574,0.01v61.955c32.765,0.047,55.625-8.613,55.625-8.613
	s15.579,1.315,9.737,20.513c-5.842,19.196,9.599,72.195,9.599,72.195s0.876-25.721,14.21-32.266
	C357.931,220.022,348.227,112.773,256,112.773z"/>
<path style="fill:#353535;" d="M298.672,330.128c0,0-27.969,79.463-49.538,181.784c2.282,0.057,4.57,0.088,6.866,0.088
	c8.47,0,16.841-0.397,25.1-1.152l48.64-85.009c1.3-2.272,1.226-5.079-0.19-7.278l-12.343-19.175
	c-2.338-3.632-0.869-8.494,3.089-10.223l22.754-9.94c3.793-1.657,5.315-6.203,3.325-9.831
	C339.646,357.117,323.212,332.497,298.672,330.128z"/>
<path style="fill:#4F4F4F;" d="M213.328,330.128c-24.755,2.389-42.308,27.422-49.442,39.583c-2.017,3.437-0.559,7.861,3.093,9.456
	l23.259,10.161c3.76,1.643,5.156,6.261,2.936,9.712l-12.643,19.64c-1.365,2.122-1.415,4.834-0.129,7.004l50.498,85.164
	c8.259,0.755,16.629,1.152,25.1,1.152c2.296,0,4.584-0.031,6.866-0.088C241.295,409.591,213.328,330.128,213.328,330.128z"/>
<path style="fill:#FEE187;" d="M354.263,200.139c0-25.984-8.239-48.502-21.964-65.708l2.819-3.258
	c1.817-2.1,1.588-5.277-0.514-7.092l-17.601-15.226c-2.1-1.817-5.275-1.588-7.092,0.514l-2.653,3.067
	c-10.409-6.285-22.1-10.593-34.592-12.638v-4.96c0-2.777-2.251-5.029-5.029-5.029h-23.273c-2.777,0-5.029,2.251-5.029,5.029v4.96
	c-12.491,2.043-24.183,6.351-34.592,12.638l-2.653-3.067c-1.817-2.1-4.992-2.331-7.094-0.514l-17.601,15.226
	c-2.1,1.817-2.331,4.992-0.514,7.092l2.819,3.258c-13.726,17.205-21.964,39.724-21.964,65.708L354.263,200.139L354.263,200.139z"/>
<path style="fill:#FFC61B;" d="M332.298,134.43l2.819-3.258c1.817-2.1,1.588-5.277-0.514-7.092l-17.601-15.226
	c-2.1-1.817-5.275-1.588-7.092,0.514l-2.653,3.067c-10.409-6.285-22.1-10.593-34.592-12.638v-4.96c0-2.777-2.251-5.029-5.029-5.029
	h-13.072v110.33h99.699C354.263,174.154,346.024,151.636,332.298,134.43z"/>
<path style="fill:#940030;" d="M256,172.956c-39.421,0-75.143,9.969-101.224,26.124c-1.995,1.236-1.131,4.31,1.215,4.31h200.018
	c2.346,0,3.21-3.074,1.215-4.31C331.143,182.925,295.421,172.956,256,172.956z"/>
<path style="fill:#700129;" d="M357.223,199.08c-26.081-16.155-61.804-26.124-101.224-26.124c-0.481,0-0.955,0.019-1.436,0.022
	v30.411h101.443C358.353,203.39,359.219,200.316,357.223,199.08z"/>
<polygon style="fill:#969696;" points="162.909,158.025 158.301,173.54 254.564,173.54 254.564,158.025 "/>
<polygon style="fill:#72716F;" points="350.529,158.025 254.564,158.025 254.564,173.54 355.137,173.54 "/>
<circle style="fill:#3A3A3A;" cx="256" cy="155.152" r="33.904"/>
<path style="fill:#333333;" d="M256,121.247c-0.484,0-0.957,0.053-1.436,0.072v67.663c0.479,0.021,0.952,0.072,1.436,0.072
	c18.725,0,33.904-15.179,33.904-33.904S274.725,121.247,256,121.247z"/>
<circle style="fill:#969696;" cx="256" cy="155.152" r="20.113"/>
<path style="fill:#72716F;" d="M256,135.039c-0.484,0-0.96,0.038-1.436,0.072v40.081c0.476,0.034,0.952,0.072,1.436,0.072
	c11.107,0,20.113-9.004,20.113-20.113C276.113,144.043,267.107,135.039,256,135.039z"/>
<g>
</g>
<g>
</g>
<g>
</g>
<g>
</g>
<g>
</g>
<g>
</g>
<g>
</g>
<g>
</g>
<g>
</g>
<g>
</g>
<g>
</g>
<g>
</g>
<g>
</g>
<g>
</g>
<g>
</g>
</svg>
